<?xml version="1.0" encoding="UTF-8"?>
<!DOCTYPE svg PUBLIC "-//W3C//DTD SVG 1.1//EN" "http://www.w3.org/Graphics/SVG/1.1/DTD/svg11.dtd">
<!-- Creator: CorelDRAW 2020 (64-Bit) -->
<svg xmlns="http://www.w3.org/2000/svg" xml:space="preserve" width="91px" height="91px" version="1.1" style="shape-rendering:geometricPrecision; text-rendering:geometricPrecision; image-rendering:optimizeQuality; fill-rule:evenodd; clip-rule:evenodd"
viewBox="0 0 91 91"
 xmlns:xlink="http://www.w3.org/1999/xlink"
 xmlns:xodm="http://www.corel.com/coreldraw/odm/2003">
 <defs>
  <style type="text/css">
   <![CDATA[
    .fil6 {fill:#8B8B8C}
    .fil4 {fill:#FEE9AB}
    .fil1 {fill:#FEE9AB}
    .fil0 {fill:#FCD579}
    .fil3 {fill:#DAB96B}
    .fil5 {fill:#332C2B;fill-opacity:0.400000}
    .fil7 {fill:#FEE9AB;fill-opacity:0.501961}
    .fil2 {fill:url(#id0)}
    .fil8 {fill:url(#id1)}
   ]]>
  </style>
  <linearGradient id="id0" gradientUnits="userSpaceOnUse" x1="44.916" y1="24.142" x2="44.905" y2="0.625">
   <stop offset="0" style="stop-opacity:1; stop-color:#837144"/>
   <stop offset="1" style="stop-opacity:1; stop-color:#B9A463"/>
  </linearGradient>
  <linearGradient id="id1" gradientUnits="userSpaceOnUse" x1="44.942" y1="91.584" x2="44.916" y2="88.027">
   <stop offset="0" style="stop-opacity:1; stop-color:#99854F"/>
   <stop offset="1" style="stop-opacity:1; stop-color:#FDDF91"/>
  </linearGradient>
 </defs>
 <g id="图层_x0020_1">
  <metadata id="CorelCorpID_0Corel-Layer"/>
  <polygon class="fil0" points="-0.564,23.365 90.395,23.365 90.395,88.039 86.87,91.584 3.014,91.584 -0.564,88.015 "/>
  <rect class="fil1" x="-0.564" y="23.365" width="90.959" height="0.777"/>
  <polygon class="fil2" points="22.176,0.625 67.655,0.625 90.395,23.365 -0.564,23.365 "/>
  <polygon class="fil3" points="10.806,0.625 44.905,0.625 37.611,15.74 -0.564,23.365 "/>
  <polygon class="fil4" points="44.905,0.625 37.653,17.274 -0.564,23.365 37.611,15.74 "/>
  <polygon class="fil3" points="79.005,0.625 44.905,0.625 52.2,15.74 90.375,23.365 "/>
  <polygon class="fil4" points="44.905,0.625 52.158,17.274 90.375,23.365 52.2,15.74 "/>
  <path class="fil5" d="M50.291 38.46c-3.262,0.058 -6.319,0.939 -9.049,2.684l30.525 33.747 0.019 0.024c0.403,0.521 0.609,1.177 0.609,1.832 0,0.701 -0.235,1.399 -0.692,1.934l-5.115 5.981c-0.457,0.535 -1.108,0.866 -1.818,0.866 -0.835,0 -1.574,-0.455 -2.026,-1.142l-27.136 -33.572 0.001 0.265c0,0.698 -0.234,1.397 -0.689,1.931l-4.386 5.144c-0.458,0.537 -1.111,0.869 -1.821,0.869 -0.71,0 -1.364,-0.331 -1.821,-0.868l-8.766 -10.284c-0.455,-0.535 -0.69,-1.232 -0.69,-1.931 0,-0.699 0.233,-1.398 0.689,-1.932l4.386 -5.131c0.458,-0.536 1.108,-0.869 1.819,-0.869l3.192 0c2.267,-2.963 5.092,-5.681 8.526,-7.22 2.57,-1.151 5.304,-1.554 8.088,-1.117 2.726,0.429 5.267,1.601 7.445,3.282l0.015 0.011 0.635 0.538 0.014 0.013c0.59,0.55 0.899,1.348 0.899,2.148 0,0.301 -0.043,0.602 -0.13,0.891 -0.32,1.065 -1.232,1.906 -2.38,1.906l-0.343 0zm1.951 -2.138c0.063,-0.211 0.095,-0.434 0.095,-0.659 0,-0.606 -0.236,-1.18 -0.642,-1.558l-0.606 -0.514c-2.13,-1.643 -4.552,-2.716 -7.078,-3.123 -4.58,-0.71 -10.414,0.754 -16.088,8.346l-3.593 0c-0.452,0 -0.886,0.211 -1.206,0.587l-4.385 5.131c-0.317,0.374 -0.496,0.88 -0.496,1.408 0,0.527 0.179,1.034 0.497,1.408l8.766 10.284c0.319,0.373 0.755,0.584 1.207,0.584 0.452,0 0.888,-0.211 1.208,-0.586l4.385 -5.143c0.317,-0.373 0.496,-0.881 0.496,-1.408l-0.001 -2.547 28.597 35.38c0.321,0.508 0.831,0.81 1.372,0.81 0.453,0 0.886,-0.211 1.205,-0.584l5.115 -5.982c0.319,-0.373 0.499,-0.879 0.499,-1.409 0,-0.494 -0.158,-0.972 -0.441,-1.338l-31.127 -34.412c2.547,-1.819 6.041,-3.346 10.611,-3.346 0,0.003 0.002,0.003 0.002,0.003 0.722,0 1.368,-0.535 1.608,-1.332z"/>
  <path id="hammer.svg" class="fil6" d="M52.233 35.435c0.064,-0.211 0.096,-0.434 0.096,-0.658 0,-0.606 -0.236,-1.181 -0.642,-1.559l-0.607 -0.514c-2.129,-1.643 -4.551,-2.716 -7.077,-3.122 -4.58,-0.71 -10.414,0.753 -16.088,8.346l-3.593 0c-0.452,0 -0.887,0.211 -1.206,0.586l-4.386 5.132c-0.316,0.373 -0.496,0.88 -0.496,1.407 0,0.528 0.18,1.034 0.498,1.408l8.765 10.284c0.32,0.374 0.755,0.585 1.208,0.585 0.452,0 0.888,-0.211 1.207,-0.586l4.386 -5.144c0.317,-0.372 0.496,-0.88 0.496,-1.408l-0.002 -2.547 28.597 35.381c0.322,0.507 0.832,0.809 1.373,0.809 0.452,0 0.885,-0.211 1.205,-0.583l5.115 -5.982c0.319,-0.374 0.498,-0.88 0.498,-1.409 0,-0.495 -0.157,-0.972 -0.44,-1.339l-31.127 -34.412c2.546,-1.819 6.041,-3.346 10.611,-3.346 0,0.003 0.001,0.003 0.001,0.003 0.723,0 1.369,-0.535 1.608,-1.332z"/>
  <path class="fil1" d="M23.537 50.489l-3.338 -3.799c-0.816,-0.958 -1.112,-2.352 -0.294,-3.309l3.862 -4.078c0.408,-0.477 0.988,-0.774 1.621,-0.774l2.951 0.027c3.462,-4.525 9.448,-9.359 15.447,-8.416 2.429,0.381 4.699,1.284 6.641,2.782 0.47,0.612 0.037,0.595 -1.075,0.104 -1.738,-1.202 -3.673,-1.862 -5.678,-2.176 -4.08,-0.641 -9.92,1.658 -14.977,8.425l-3.309 -0.027c-0.403,0 -0.773,0.204 -1.075,0.522l-3.862 4.078c-0.589,0.695 -0.306,1.691 0.295,2.375l3.337 3.8c0.585,0.42 0.112,1.11 -0.546,0.466z"/>
  <path class="fil7" d="M67.558 80.901c-0.408,0.477 -0.988,0.772 -1.62,0.772 -0.744,0 -1.403,-0.406 -1.806,-1.018l-20.47 -25.326 0.924 0 20.129 24.903c0.286,0.453 0.741,0.722 1.223,0.722 1.188,0 0.809,-0.032 1.62,-0.053z"/>
  <polygon class="fil1" points="-0.564,23.365 10.806,0.625 0.217,23.209 "/>
  <polygon class="fil1" points="90.354,23.324 78.984,0.584 89.574,23.168 "/>
  <polygon class="fil8" points="-0.564,88.015 90.395,88.039 86.87,91.584 3.014,91.584 "/>
 </g>
</svg>
